<?xml version="1.0" encoding="utf-8"?>
<!-- Generator: Adobe Illustrator 24.2.3, SVG Export Plug-In . SVG Version: 6.00 Build 0)  -->
<svg version="1.1" id="Layer_1" xmlns="http://www.w3.org/2000/svg" xmlns:xlink="http://www.w3.org/1999/xlink" x="0px" y="0px"
	 viewBox="0 0 728.5 208.3" style="enable-background:new 0 0 728.5 208.3;" xml:space="preserve">
<style type="text/css">
	.st0{fill:#0D0E0D;}
	.st1{fill:none;}
	.st2{enable-background:new    ;}
</style>
<g>
	<path class="st0" d="M109.8,54.5c4.3,2.3,8.2,3.6,11,6.2c1.8,1.6,2.3,5.1,3.5,7.9c-3,0.8-6.2,3.1-8.7,2.5c-4.3-1-8.1-3.8-12.7-6.2
		c-2.1,2.8-3.8,5.1-6.4,8.5c3.6,1.8,7.4,3.1,9.5,5.4c1.8,2.1,2.3,5.4,3.3,8.4c-3,0.7-6.2,2.6-8.7,1.8c-3.8-0.8-7.2-3.5-11.3-5.4
		c-1.8,1.8-3.6,3.9-6.2,6.7c3.9,2.3,7.9,3.6,10.7,6.2c1.8,1.6,2.3,4.9,3.3,7.7c-3,0.8-6.4,3.1-8.5,2.3c-13.8-4.6-13.5-4.9-23.5,6.4
		c-11.2,12.5-24.2,22.4-38.9,30.4c-18.2,10-21.9,29.7-7.2,41.6c6.2,4.9,15.6,7.7,23.5,7.9c9.4,0.2,19.2-2.8,28.1-6.2
		c41.1-15.8,81.8-32.2,122.8-48.3c4.9-1.8,10.5-3,15.8-3c20.5-0.3,41.2-0.2,61.8,0c6.1,0,11.3-1,11.3-8.2c0-6.9-5.4-8.1-11-8.1
		c-10.8-0.2-21.9,0-32.5,0c-10.5,0-15.1-3-14.5-9.2c0.8-8.4,7.2-8.9,14.1-8.7c14.3,0.2,28.6,0.3,42.9,0c6.6-0.2,16.4,3,16.1-8.2
		c-0.3-10.8-10.2-7.9-16.6-7.9c-22-0.3-44-0.2-66.1-0.2c-2.3,0-4.6,0-6.9-0.2c-5.6-0.3-9.2-3.5-9-9c0.2-5.9,3.8-8.5,9.5-8.5
		c16.3,0,32.5,0,49,0c23.2,0,46.3-0.2,69.5,0c6.1,0,11.7-1,11.8-7.9c0.2-7.4-5.4-8.9-11.8-8.9c-28.3,0.2-56.7,0-85,0.2
		c-6.7,0-12.5-1-12.3-9.2c0.2-7.9,6.1-8.5,12.2-8.5c11.7,0,23.5-0.2,35.2,0c6.2,0,10.5-2.5,10.4-8.5s-4.8-7.9-10.4-7.9
		c-21.5,0-42.9-0.3-64.4,0.3c-4.1,0.2-9,4.1-12,7.7c-4.3,5.3-6.6,12-10.5,17.7c-5.4,7.7-19.2,11.8-27.6,8.2c-1.5-0.7-3-4.4-2.8-6.7
		c0.8-9.5-3.3-15.9-11.5-20c-8.9-4.6-15.6-2.8-21,5.9C121.3,36.7,115.9,45.3,109.8,54.5z"/>
</g>
<rect x="333.8" y="50.2" class="st1" width="443.2" height="129.5"/>
<g class="st2">
	<path class="st0" d="M374.8,118.2L364,156h-30.2L364,50.2h30.2L383.4,88h15.1l10.8-37.8h30.2l-15.1,52.9l15.1,52.9h-30.2
		l-10.8-37.8H374.8z"/>
	<path class="st0" d="M447.1,156l15.1-105.7h30.2L477.3,156H447.1z"/>
	<path class="st0" d="M541,118.2L530.2,156h-30.2l30.2-105.7h30.2L549.6,88h15.1l10.8-37.8h30.2l-15.1,52.9l15.1,52.9h-30.2
		l-10.8-37.8H541z"/>
	<path class="st0" d="M666.1,125.8H719V156H613.2l7.6-30.2l52.9-45.3h-39l8.5-30.2H719l0.1,30.2H719L666.1,125.8z"/>
</g>
</svg>
