<?xml version="1.0" encoding="utf-8"?>
<!-- Generator: Adobe Illustrator 24.2.3, SVG Export Plug-In . SVG Version: 6.00 Build 0)  -->
<svg version="1.1" id="Layer_1" xmlns="http://www.w3.org/2000/svg" xmlns:xlink="http://www.w3.org/1999/xlink" x="0px" y="0px"
	 viewBox="0 0 431.5 132.3" style="enable-background:new 0 0 431.5 132.3;" xml:space="preserve">
<style type="text/css">
	.st0{fill:#0D0E0D;}
	.st1{fill:none;}
	.st2{enable-background:new    ;}
</style>
<g>
	<path class="st0" d="M61.6,29.5c2.6,1.4,5,2.2,6.7,3.8c1.1,1,1.4,3.1,2.1,4.8c-1.8,0.5-3.8,1.9-5.3,1.5c-2.6-0.6-4.9-2.3-7.7-3.8
		c-1.3,1.7-2.3,3.1-3.9,5.2c2.2,1.1,4.5,1.9,5.8,3.3c1.1,1.3,1.4,3.3,2,5.1c-1.8,0.4-3.8,1.6-5.3,1.1c-2.3-0.5-4.4-2.1-6.9-3.3
		c-1.1,1.1-2.2,2.4-3.8,4.1c2.4,1.4,4.8,2.2,6.5,3.8c1.1,1,1.4,3,2,4.7c-1.8,0.5-3.9,1.9-5.2,1.4c-8.4-2.8-8.2-3-14.3,3.9
		c-6.8,7.6-14.7,13.6-23.7,18.5c-11.1,6.1-13.3,18.1-4.4,25.3c3.8,3,9.5,4.7,14.3,4.8c5.7,0.1,11.7-1.7,17.1-3.8
		c25-9.6,49.8-19.6,74.7-29.4c3-1.1,6.4-1.8,9.6-1.8c12.5-0.2,25.1-0.1,37.6,0c3.7,0,6.9-0.6,6.9-5c0-4.2-3.3-4.9-6.7-4.9
		c-6.6-0.1-13.3,0-19.8,0c-6.4,0-9.2-1.8-8.8-5.6c0.5-5.1,4.4-5.4,8.6-5.3c8.7,0.1,17.4,0.2,26.1,0c4-0.1,10,1.8,9.8-5
		c-0.2-6.6-6.2-4.8-10.1-4.8c-13.4-0.2-26.8-0.1-40.2-0.1c-1.4,0-2.8,0-4.2-0.1c-3.4-0.2-5.6-2.1-5.5-5.5c0.1-3.6,2.3-5.2,5.8-5.2
		c9.9,0,19.8,0,29.8,0c14.1,0,28.2-0.1,42.3,0c3.7,0,7.1-0.6,7.2-4.8c0.1-4.5-3.3-5.4-7.2-5.4c-17.2,0.1-34.5,0-51.7,0.1
		c-4.1,0-7.6-0.6-7.5-5.6c0.1-4.8,3.7-5.2,7.4-5.2c7.1,0,14.3-0.1,21.4,0c3.8,0,6.4-1.5,6.3-5.2c-0.1-3.7-2.9-4.8-6.3-4.8
		c-13.1,0-26.1-0.2-39.2,0.2c-2.5,0.1-5.5,2.5-7.3,4.7c-2.6,3.2-4,7.3-6.4,10.8c-3.3,4.7-11.7,7.2-16.8,5c-0.9-0.4-1.8-2.7-1.7-4.1
		c0.5-5.8-2-9.7-7-12.2c-5.4-2.8-9.5-1.7-12.8,3.6C68.6,18.7,65.3,23.9,61.6,29.5z"/>
</g>
<rect x="197.9" y="26.9" class="st1" width="269.7" height="78.8"/>
<g class="st2">
	<path class="st0" d="M222.9,68.3l-6.6,23h-18.4l18.4-64.3h18.4l-6.6,23h9.2l6.6-23h18.4l-9.2,32.2l9.2,32.2h-18.4l-6.6-23H222.9z"
		/>
	<path class="st0" d="M266.8,91.3l9.2-64.3h18.4l-9.2,64.3H266.8z"/>
	<path class="st0" d="M324,68.3l-6.6,23H299l18.4-64.3h18.4l-6.6,23h9.2l6.6-23h18.4l-9.2,32.2l9.2,32.2H345l-6.6-23H324z"/>
	<path class="st0" d="M400.1,72.9h32.2v18.4H368l4.6-18.4l32.2-27.6H381l5.2-18.4h46.1l0,18.4h0L400.1,72.9z"/>
</g>
</svg>
